<?xml version="1.0" encoding="UTF-8"?>
<svg version="1.1" xmlns="http://www.w3.org/2000/svg" width="371" height="345">
<path d="M0 0 C0.87585251 -0.00570007 1.75170502 -0.01140015 2.65409851 -0.01727295 C4.50384332 -0.02667372 6.3536045 -0.03323721 8.20336914 -0.03710938 C10.96597573 -0.04671594 13.72780493 -0.07774507 16.49023438 -0.109375 C31.74391825 -0.2006117 46.59630572 1.39821885 61.32421875 5.515625 C62.10087891 5.72799805 62.87753906 5.94037109 63.67773438 6.15917969 C88.30272537 13.05057644 111.97552622 23.68709181 131.69921875 40.203125 C132.69179688 41.01265625 133.684375 41.8221875 134.70703125 42.65625 C168.93288269 70.81059935 191.20464476 109.30648865 196.18383789 153.66845703 C200.40829444 197.82444934 186.59958102 240.13690745 158.59448242 274.28369141 C128.41862942 310.38911273 85.05414313 332.68153139 38.69921875 339.203125 C37.42046875 339.38746094 36.14171875 339.57179688 34.82421875 339.76171875 C27.23762761 340.56647975 19.57045789 340.44754161 11.94921875 340.453125 C11.12319153 340.45379974 10.29716431 340.45447449 9.44610596 340.45516968 C-3.34483521 340.43858142 -15.76235756 339.9539564 -28.30078125 337.203125 C-29.0896875 337.03151855 -29.87859375 336.85991211 -30.69140625 336.68310547 C-48.82257166 332.59262682 -65.96292213 326.02105782 -82.30078125 317.203125 C-82.9129248 316.87699219 -83.52506836 316.55085938 -84.15576172 316.21484375 C-123.24793667 295.2543398 -153.95062791 258.63077682 -167.2421875 216.2265625 C-178.98309688 173.71599883 -174.01464913 128.65601225 -152.30078125 90.203125 C-126.82876661 46.60288736 -85.19391185 18.67036755 -37.30078125 5.203125 C-30.69930163 3.52956787 -24.04439464 2.16058744 -17.30078125 1.203125 C-16.08801514 1.02950439 -14.87524902 0.85588379 -13.62573242 0.67700195 C-9.08036739 0.11831615 -4.57561421 0.02377806 0 0 Z " fill="#9133FD" transform="translate(173.30078125,-0.203125)"/>
<path d="M0 0 C4.71338628 -0.29819461 9.42123304 -0.51498014 14.1418457 -0.65917969 C15.74405524 -0.71929284 17.34561247 -0.80102546 18.94555664 -0.90527344 C24.18235936 -1.23776885 28.89354093 -1.32411787 34 0 C37.57740396 3.55658753 39.32686782 7.28505485 41 12 C41.41282227 13.10698242 41.41282227 13.10698242 41.83398438 14.23632812 C42.26107204 15.44019012 42.68022137 16.64688211 43.09375 17.85546875 C45.06965016 22.53119801 48.05065857 26.72498452 50.75634766 31.00683594 C53.10025287 34.76334205 55.35529646 38.57338645 57.625 42.375 C58.6454747 44.07573607 59.66631899 45.77625043 60.6875 47.4765625 C62.42115171 50.36422873 64.15123888 53.25387652 65.875 56.14746094 C67.78502369 59.35233435 69.70431563 62.55150701 71.625 65.75 C72.22908691 66.76884277 72.83317383 67.78768555 73.45556641 68.83740234 C74.01937012 69.77277832 74.58317383 70.7081543 75.1640625 71.671875 C75.66373535 72.5081543 76.1634082 73.34443359 76.67822266 74.20605469 C77.11440918 74.79805664 77.5505957 75.39005859 78 76 C78.66 76 79.32 76 80 76 C80.28770264 75.40429199 80.57540527 74.80858398 80.87182617 74.19482422 C84.07649433 67.66118255 87.60618102 61.38504378 91.3125 55.125 C95.31061775 48.32734025 99.28949057 41.52124604 103.19140625 34.66796875 C103.54102921 34.05405273 103.89065216 33.44013672 104.25086975 32.80761719 C105.94310972 29.8340584 107.63196212 26.85864231 109.31762695 23.88134766 C110.56860943 21.68071542 111.83588176 19.48925509 113.12011719 17.30786133 C114.44336048 14.97946868 115.62559474 12.7191114 116.76269531 10.30737305 C118.49353228 6.81795105 120.27300068 3.83137008 123 1 C127.7697909 -0.53996106 132.05199611 -0.25400615 137 0.1875 C138.87751953 0.27547852 138.87751953 0.27547852 140.79296875 0.36523438 C143.87039782 0.51793124 146.93093941 0.73075621 150 1 C150 1.99 150 2.98 150 4 C148.9275 4.474375 147.855 4.94875 146.75 5.4375 C142.08027929 8.11266389 140.40888165 11.94014545 139 17 C138.12653605 22.83453705 137.84674726 28.50063381 137.83886719 34.39428711 C137.83390228 35.29783432 137.82893738 36.20138153 137.82382202 37.13230896 C137.80931291 40.09732851 137.80241874 43.06229465 137.796875 46.02734375 C137.79404762 47.04583467 137.79122025 48.0643256 137.78830719 49.11367989 C137.77336331 54.49921042 137.76410243 59.88471447 137.75976562 65.27026367 C137.75427552 70.81597655 137.73022224 76.3614446 137.70179367 81.90708065 C137.68312553 86.18889568 137.67795955 90.47065207 137.67642975 94.75250435 C137.6734142 96.79652818 137.66542301 98.84055126 137.65224457 100.88453484 C137.63508991 103.7486504 137.63708679 106.61217154 137.64355469 109.47631836 C137.62973251 110.72738373 137.62973251 110.72738373 137.6156311 112.00372314 C137.65516117 117.62353379 138.40845562 122.93900449 141 128 C141.99 128.66 142.98 129.32 144 130 C144 130.99 144 131.98 144 133 C132.78 133 121.56 133 110 133 C111 129 111 129 113 127.0625 C117.22222152 122.70833406 116.13615352 116.05770567 116.11352539 110.34448242 C116.11374443 108.89498199 116.11374443 108.89498199 116.1139679 107.41619873 C116.11327248 104.22926573 116.1054974 101.04239152 116.09765625 97.85546875 C116.09579075 95.64301078 116.09436747 93.4305524 116.09336853 91.21809387 C116.08955372 85.40006364 116.07973225 79.58205844 116.06866455 73.76403809 C116.05842818 67.82511738 116.05386614 61.88619262 116.04882812 55.94726562 C116.03810907 44.2981661 116.02104506 32.64908513 116 21 C103.88968929 41.25281819 103.88968929 41.25281819 92.3125 61.8125 C89.88038275 66.21132132 87.43975459 70.60541099 85 75 C84.39430176 76.09538086 83.78860352 77.19076172 83.16455078 78.31933594 C81.42117997 81.45374893 79.6522798 84.57221924 77.875 87.6875 C77.35462158 88.63278564 76.83424316 89.57807129 76.2980957 90.55200195 C75.805271 91.4049585 75.31244629 92.25791504 74.8046875 93.13671875 C74.17022705 94.26146606 74.17022705 94.26146606 73.52294922 95.40893555 C72 97 72 97 69.52246094 97.51635742 C67 97 67 97 65.32177734 95.17431641 C64.8314502 94.32530762 64.34112305 93.47629883 63.8359375 92.6015625 C62.99796631 91.18460083 62.99796631 91.18460083 62.14306641 89.73901367 C61.55960449 88.71138916 60.97614258 87.68376465 60.375 86.625 C59.12005498 84.48812659 57.86484416 82.35140926 56.609375 80.21484375 C55.99384766 79.15249512 55.37832031 78.09014648 54.74414062 76.99560547 C52.4306427 73.02211449 50.03616309 69.1021863 47.625 65.1875 C46.74983636 63.75530832 45.87484285 62.32301266 45 60.890625 C42.65531472 57.06183838 40.29759884 53.24117111 37.9375 49.421875 C36.85675634 47.67132143 35.77612374 45.92069934 34.69549561 44.17007446 C33.65480133 42.48573283 32.61185731 40.80278189 31.56884766 39.11987305 C30.91964355 38.06840088 30.27043945 37.01692871 29.6015625 35.93359375 C29.02744629 35.00603271 28.45333008 34.07847168 27.86181641 33.12280273 C25.48239206 29.1318223 23.23734909 25.07189627 21 21 C20.93023439 32.26648634 20.87705448 43.53292058 20.84456348 54.79957962 C20.82896292 60.0321546 20.80782797 65.26458088 20.77368164 70.49707031 C20.74088707 75.55454707 20.72310489 80.61188153 20.71536827 85.66945648 C20.70986063 87.59099311 20.69910637 89.51252269 20.68280983 91.43399811 C20.32461962 109.51938995 20.32461962 109.51938995 27 126 C28.7651936 127.39962481 28.7651936 127.39962481 30.6875 128.3125 C31.780625 128.869375 32.87375 129.42625 34 130 C34 130.99 34 131.98 34 133 C25.75 133 17.5 133 9 133 C9 131.68 9 130.36 9 129 C8.34 129 7.68 129 7 129 C7 129.66 7 130.32 7 131 C6.34 131 5.68 131 5 131 C4.67 131.99 4.34 132.98 4 134 C0.29193404 134.11674705 -3.4156554 134.18743274 -7.125 134.25 C-8.17171875 134.28351563 -9.2184375 134.31703125 -10.296875 134.3515625 C-16.38638261 134.42864487 -20.30105871 134.30370324 -25 130 C-28.38748187 126.37275081 -30.50535847 122.34850956 -32.5625 117.875 C-32.89693115 117.15924805 -33.2313623 116.44349609 -33.57592773 115.70605469 C-36.81251563 108.65212165 -39.67440379 101.45173658 -42.5625 94.25 C-47.99234522 78.13126545 -47.99234522 78.13126545 -58.1875 65.1875 C-64.5146688 63.2167425 -70.40104035 62.19585518 -76.54272461 65.2746582 C-80.89708875 68.87838161 -83.13357849 72.0850005 -83.75097656 77.71948242 C-84.07507174 83.48623129 -83.8812329 89.2318946 -83.6875 95 C-83.65946167 97.00255276 -83.63533931 99.00516438 -83.61523438 101.0078125 C-83.68858557 113.69623133 -83.68858557 113.69623133 -81 126 C-78.50626957 128.36362416 -78.50626957 128.36362416 -76 130 C-76 130.99 -76 131.98 -76 133 C-87.55 133 -99.1 133 -111 133 C-111 132.01 -111 131.02 -111 130 C-110.071875 129.4121875 -110.071875 129.4121875 -109.125 128.8125 C-106.00591893 126.15210732 -105.64011181 122.8943985 -105 119 C-104.73014287 115.48806827 -104.71617308 111.99353437 -104.7253418 108.47241211 C-104.72023087 107.44860947 -104.71511993 106.42480682 -104.70985413 105.36997986 C-104.69602067 102.0057074 -104.69690979 98.64164116 -104.69921875 95.27734375 C-104.69532926 92.92900009 -104.69099407 90.58065712 -104.68623352 88.23231506 C-104.67878539 83.3191601 -104.67905305 78.40607703 -104.68432617 73.49291992 C-104.69012815 67.20265708 -104.67316513 60.91268798 -104.6499815 54.62247372 C-104.63524075 49.77627345 -104.63437278 44.93014396 -104.63749123 40.08392525 C-104.6369785 37.76472961 -104.63174982 35.44552996 -104.62167931 33.12635612 C-104.60932177 29.8834413 -104.6161022 26.64109924 -104.62768555 23.39819336 C-104.61621994 21.96802887 -104.61621994 21.96802887 -104.60452271 20.50897217 C-104.64858637 14.91826411 -105.25103598 10.91427065 -108 6 C-108.99 5.34 -109.98 4.68 -111 4 C-111 3.01 -111 2.02 -111 1 C-99.45 1 -87.9 1 -76 1 C-76 1.99 -76 2.98 -76 4 C-76.598125 4.185625 -77.19625 4.37125 -77.8125 4.5625 C-81.03881386 6.68264911 -82.03754775 9.38773918 -83 13 C-83.39978111 17.24260475 -83.34946951 21.4567078 -83.29296875 25.71484375 C-83.28660149 27.53116051 -83.28660149 27.53116051 -83.28010559 29.38417053 C-83.26336989 33.23551057 -83.22572572 37.08631923 -83.1875 40.9375 C-83.17244662 43.55533096 -83.15875936 46.17317016 -83.14648438 48.79101562 C-83.11348299 55.19419042 -83.06333386 61.59705723 -83 68 C-76.15741226 61.32442138 -76.15741226 61.32442138 -69.74609375 54.2421875 C-66.50009697 50.45566624 -63.0135896 46.95264376 -59.47265625 43.4453125 C-58.87585052 42.8540155 -58.2790448 42.26271851 -57.66415405 41.65350342 C-55.17398947 39.19094086 -52.68040597 36.73191634 -50.18188477 34.27783203 C-36.21249368 22.05059237 -36.21249368 22.05059237 -29 6 C-29.66 5.54625 -30.32 5.0925 -31 4.625 C-31.99 3.820625 -31.99 3.820625 -33 3 C-33 2.34 -33 1.68 -33 1 C-28.62176083 0.95061851 -24.24366854 0.9142896 -19.86523438 0.89013672 C-18.3752968 0.88006957 -16.88537903 0.86641482 -15.39550781 0.84912109 C-13.25580972 0.82490347 -11.11637247 0.81352436 -8.9765625 0.8046875 C-7.68830566 0.79421387 -6.40004883 0.78374023 -5.07275391 0.77294922 C-2 1 -2 1 0 3 C0.66 3 1.32 3 2 3 C2 2.34 2 1.68 2 1 C1.01 0.505 1.01 0.505 0 0 Z " fill="#9133FC" transform="translate(166,91)"/>
<path d="M0 0 C9.57 0 19.14 0 29 0 C30.093125 1.93875 31.18625 3.8775 32.3125 5.875 C35.96596326 12.30092784 39.78574326 18.61587676 43.65625 24.9128418 C47.07851115 30.48275832 50.456319 36.07754946 53.8125 41.6875 C54.8058003 43.34256153 55.79929412 44.99750693 56.79296875 46.65234375 C58.48708025 49.47408656 60.1774602 52.29790788 61.86181641 55.12548828 C63.77621998 58.33769453 65.69992256 61.54418205 67.625 64.75 C68.22932861 65.76924561 68.83365723 66.78849121 69.45629883 67.83862305 C70.01986084 68.77359619 70.58342285 69.70856934 71.1640625 70.671875 C71.66373535 71.5081543 72.1634082 72.34443359 72.67822266 73.20605469 C73.11440918 73.79805664 73.5505957 74.39005859 74 75 C74.66 75 75.32 75 76 75 C76.28770264 74.40429199 76.57540527 73.80858398 76.87182617 73.19482422 C80.07649433 66.66118255 83.60618102 60.38504378 87.3125 54.125 C91.31061775 47.32734025 95.28949057 40.52124604 99.19140625 33.66796875 C99.54102921 33.05405273 99.89065216 32.44013672 100.25086975 31.80761719 C101.94310972 28.8340584 103.63196212 25.85864231 105.31762695 22.88134766 C106.56860943 20.68071542 107.83588176 18.48925509 109.12011719 16.30786133 C110.44336048 13.97946868 111.62559474 11.7191114 112.76269531 9.30737305 C114.49353228 5.81795105 116.27300068 2.83137008 119 0 C123.7697909 -1.53996106 128.05199611 -1.25400615 133 -0.8125 C134.87751953 -0.72452148 134.87751953 -0.72452148 136.79296875 -0.63476562 C139.87039782 -0.48206876 142.93093941 -0.26924379 146 0 C146 0.99 146 1.98 146 3 C144.9275 3.474375 143.855 3.94875 142.75 4.4375 C138.08027929 7.11266389 136.40888165 10.94014545 135 16 C134.12653605 21.83453705 133.84674726 27.50063381 133.83886719 33.39428711 C133.83390228 34.29783432 133.82893738 35.20138153 133.82382202 36.13230896 C133.80931291 39.09732851 133.80241874 42.06229465 133.796875 45.02734375 C133.79404762 46.04583467 133.79122025 47.0643256 133.78830719 48.11367989 C133.77336331 53.49921042 133.76410243 58.88471447 133.75976562 64.27026367 C133.75427552 69.81597655 133.73022224 75.3614446 133.70179367 80.90708065 C133.68312553 85.18889568 133.67795955 89.47065207 133.67642975 93.75250435 C133.6734142 95.79652818 133.66542301 97.84055126 133.65224457 99.88453484 C133.63508991 102.7486504 133.63708679 105.61217154 133.64355469 108.47631836 C133.62973251 109.72738373 133.62973251 109.72738373 133.6156311 111.00372314 C133.65516117 116.62353379 134.40845562 121.93900449 137 127 C137.99 127.66 138.98 128.32 140 129 C140 129.99 140 130.98 140 132 C128.78 132 117.56 132 106 132 C107 128 107 128 109 126.0625 C113.22222152 121.70833406 112.13615352 115.05770567 112.11352539 109.34448242 C112.11367142 108.3781488 112.11381744 107.41181519 112.1139679 106.41619873 C112.11327248 103.22926573 112.1054974 100.04239152 112.09765625 96.85546875 C112.09579075 94.64301078 112.09436747 92.4305524 112.09336853 90.21809387 C112.08955372 84.40006364 112.07973225 78.58205844 112.06866455 72.76403809 C112.05842818 66.82511738 112.05386614 60.88619262 112.04882812 54.94726562 C112.03810907 43.2981661 112.02104506 31.64908513 112 20 C99.88968929 40.25281819 99.88968929 40.25281819 88.3125 60.8125 C85.88038275 65.21132132 83.43975459 69.60541099 81 74 C80.09145264 75.64307129 80.09145264 75.64307129 79.16455078 77.31933594 C77.42117997 80.45374893 75.6522798 83.57221924 73.875 86.6875 C73.35462158 87.63278564 72.83424316 88.57807129 72.2980957 89.55200195 C71.805271 90.4049585 71.31244629 91.25791504 70.8046875 92.13671875 C70.17022705 93.26146606 70.17022705 93.26146606 69.52294922 94.40893555 C68 96 68 96 65.52246094 96.51635742 C63 96 63 96 61.32177734 94.17431641 C60.8314502 93.32530762 60.34112305 92.47629883 59.8359375 91.6015625 C59.27729004 90.65692139 58.71864258 89.71228027 58.14306641 88.73901367 C57.55960449 87.71138916 56.97614258 86.68376465 56.375 85.625 C55.12005498 83.48812659 53.86484416 81.35140926 52.609375 79.21484375 C51.99384766 78.15249512 51.37832031 77.09014648 50.74414062 75.99560547 C48.4306427 72.02211449 46.03616309 68.1021863 43.625 64.1875 C42.74983636 62.75530832 41.87484285 61.32301266 41 59.890625 C38.65531472 56.06183838 36.29759884 52.24117111 33.9375 48.421875 C32.85675634 46.67132143 31.77612374 44.92069934 30.69549561 43.17007446 C29.65480133 41.48573283 28.61185731 39.80278189 27.56884766 38.11987305 C26.91964355 37.06840088 26.27043945 36.01692871 25.6015625 34.93359375 C25.02744629 34.00603271 24.45333008 33.07847168 23.86181641 32.12280273 C21.48239206 28.1318223 19.23734909 24.07189627 17 20 C16.93023439 31.26648634 16.87705448 42.53292058 16.84456348 53.79957962 C16.82896292 59.0321546 16.80782797 64.26458088 16.77368164 69.49707031 C16.74088707 74.55454707 16.72310489 79.61188153 16.71536827 84.66945648 C16.70986063 86.59099311 16.69910637 88.51252269 16.68280983 90.43399811 C16.32461962 108.51938995 16.32461962 108.51938995 23 125 C24.7651936 126.39962481 24.7651936 126.39962481 26.6875 127.3125 C28.3271875 128.1478125 28.3271875 128.1478125 30 129 C30 129.99 30 130.98 30 132 C21.75 132 13.5 132 5 132 C5 131.01 5 130.02 5 129 C5.78375 128.4225 6.5675 127.845 7.375 127.25 C11.05395002 124.09661427 11.78104137 120.56765315 12.17993927 115.88991356 C12.2590834 113.50258183 12.27032743 111.12372143 12.25878906 108.73510742 C12.2622937 107.83331253 12.26579834 106.93151764 12.26940918 106.00239563 C12.27817371 103.0366738 12.27239449 100.0711928 12.265625 97.10546875 C12.26697352 95.03192601 12.26891561 92.95838358 12.27142334 90.88484192 C12.27436776 86.54323307 12.27010017 82.20170666 12.26074219 77.86010742 C12.24936952 72.31562548 12.25589766 66.77133767 12.26788712 61.22686291 C12.27514238 56.94499776 12.27280062 52.66317799 12.26763153 48.38131142 C12.26630405 46.33812753 12.2679109 44.29493944 12.27259064 42.25176048 C12.27771393 39.38542277 12.26986384 36.5193913 12.25878906 33.65307617 C12.26283752 32.82105682 12.26688599 31.98903748 12.27105713 31.13180542 C12.20921897 22.41952714 11.17528522 14.18789615 6 7 C4.02369593 5.63178949 2.02790984 4.29048808 0 3 C0 2.01 0 1.02 0 0 Z " fill="#04010A" transform="translate(170,92)"/>
<path d="M0 0 C11.55 0 23.1 0 35 0 C35 0.99 35 1.98 35 3 C34.401875 3.185625 33.80375 3.37125 33.1875 3.5625 C29.96118614 5.68264911 28.96245225 8.38773918 28 12 C27.60021889 16.24260475 27.65053049 20.4567078 27.70703125 24.71484375 C27.71339851 26.53116051 27.71339851 26.53116051 27.71989441 28.38417053 C27.73663011 32.23551057 27.77427428 36.08631923 27.8125 39.9375 C27.82755338 42.55533096 27.84124064 45.17317016 27.85351562 47.79101562 C27.88651701 54.19419042 27.93666614 60.59705723 28 67 C34.84258774 60.32442138 34.84258774 60.32442138 41.25390625 53.2421875 C44.49990303 49.45566624 47.9864104 45.95264376 51.52734375 42.4453125 C52.12414948 41.8540155 52.7209552 41.26271851 53.33584595 40.65350342 C55.82601053 38.19094086 58.31959403 35.73191634 60.81811523 33.27783203 C74.78750632 21.05059237 74.78750632 21.05059237 82 5 C81.34 4.54625 80.68 4.0925 80 3.625 C79.01 2.820625 79.01 2.820625 78 2 C78 1.34 78 0.68 78 0 C87.57 0 97.14 0 107 0 C107 0.99 107 1.98 107 3 C106.16597656 3.29132813 105.33195312 3.58265625 104.47265625 3.8828125 C102.78462891 4.49769531 102.78462891 4.49769531 101.0625 5.125 C99.96035156 5.51945312 98.85820312 5.91390625 97.72265625 6.3203125 C87.93773675 10.45623348 80.91428457 17.6708576 73.59716797 25.12158203 C71.87849377 26.87144283 70.14935751 28.61038342 68.41796875 30.34765625 C63.25144851 35.55091268 58.1838483 40.78645791 53.41796875 46.36376953 C51.40592881 48.68551396 49.25088538 50.84528209 47.0625 53 C46.29035156 53.763125 45.51820312 54.52625 44.72265625 55.3125 C44.15417969 55.869375 43.58570313 56.42625 43 57 C44.64935547 57.03867188 44.64935547 57.03867188 46.33203125 57.078125 C57.56800759 57.45753814 68.52240893 58.24629214 76.98120117 66.57958984 C79.36211122 69.4341481 81.10638839 72.47046972 82.82421875 75.74609375 C83.17032196 76.40127991 83.51642517 77.05646606 83.87301636 77.73150635 C87.64728313 85.02776583 90.65274477 92.60081375 93.625 100.25 C98.47244302 116.20385431 98.47244302 116.20385431 108.140625 128.11303711 C110.57922108 128.80547333 110.57922108 128.80547333 114 129 C114 129.99 114 130.98 114 132 C109.87840578 133.37386474 106.00545595 133.26361748 101.6875 133.3125 C100.84509766 133.34150391 100.00269531 133.37050781 99.13476562 133.40039062 C93.56531485 133.45699959 90.36291434 132.78291095 86 129 C82.61251813 125.37275081 80.49464153 121.34850956 78.4375 116.875 C78.10306885 116.15924805 77.7686377 115.44349609 77.42407227 114.70605469 C74.18748437 107.65212165 71.32559621 100.45173658 68.4375 93.25 C63.00765478 77.13126545 63.00765478 77.13126545 52.8125 64.1875 C46.4853312 62.2167425 40.59895965 61.19585518 34.45727539 64.2746582 C30.10291125 67.87838161 27.86642151 71.0850005 27.24902344 76.71948242 C26.92492826 82.48623129 27.1187671 88.2318946 27.3125 94 C27.34053833 96.00255276 27.36466069 98.00516438 27.38476562 100.0078125 C27.31141443 112.69623133 27.31141443 112.69623133 30 125 C32.49373043 127.36362416 32.49373043 127.36362416 35 129 C35 129.99 35 130.98 35 132 C23.45 132 11.9 132 0 132 C0 131.01 0 130.02 0 129 C0.928125 128.4121875 0.928125 128.4121875 1.875 127.8125 C4.99408107 125.15210732 5.35988819 121.8943985 6 118 C6.26985713 114.48806827 6.28382692 110.99353437 6.2746582 107.47241211 C6.27976913 106.44860947 6.28488007 105.42480682 6.29014587 104.36997986 C6.30397933 101.0057074 6.30309021 97.64164116 6.30078125 94.27734375 C6.30467074 91.92900009 6.30900593 89.58065712 6.31376648 87.23231506 C6.32121461 82.3191601 6.32094695 77.40607703 6.31567383 72.49291992 C6.30987185 66.20265708 6.32683487 59.91268798 6.3500185 53.62247372 C6.36475925 48.77627345 6.36562722 43.93014396 6.36250877 39.08392525 C6.3630215 36.76472961 6.36825018 34.44552996 6.37832069 32.12635612 C6.39067823 28.8834413 6.3838978 25.64109924 6.37231445 22.39819336 C6.38378006 20.96802887 6.38378006 20.96802887 6.39547729 19.50897217 C6.35141363 13.91826411 5.74896402 9.91427065 3 5 C2.01 4.34 1.02 3.68 0 3 C0 2.01 0 1.02 0 0 Z " fill="#020005" transform="translate(55,92)"/>
<path d="M0 0 C1.20849609 0.01289062 2.41699219 0.02578125 3.66210938 0.0390625 C4.92474609 0.07257813 6.18738281 0.10609375 7.48828125 0.140625 C8.76251953 0.15867187 10.03675781 0.17671875 11.34960938 0.1953125 C14.50074966 0.24252059 17.65039265 0.30836116 20.80078125 0.390625 C20.80078125 1.380625 20.80078125 2.370625 20.80078125 3.390625 C19.72828125 3.865 18.65578125 4.339375 17.55078125 4.828125 C12.88106054 7.50328889 11.2096629 11.33077045 9.80078125 16.390625 C8.9273173 22.22516205 8.64752851 27.89125881 8.63964844 33.78491211 C8.63468353 34.68845932 8.62971863 35.59200653 8.62460327 36.52293396 C8.61009416 39.48795351 8.60319999 42.45291965 8.59765625 45.41796875 C8.59482887 46.43645967 8.5920015 47.4549506 8.58908844 48.50430489 C8.57414456 53.88983542 8.56488368 59.27533947 8.56054688 64.66088867 C8.55505677 70.20660155 8.53100349 75.7520696 8.50257492 81.29770565 C8.48390678 85.57952068 8.4787408 89.86127707 8.477211 94.14312935 C8.47419545 96.18715318 8.46620426 98.23117626 8.45302582 100.27515984 C8.43587116 103.1392754 8.43786804 106.00279654 8.44433594 108.86694336 C8.43512115 109.70098694 8.42590637 110.53503052 8.41641235 111.39434814 C8.45594242 117.01415879 9.20923687 122.32962949 11.80078125 127.390625 C12.79078125 128.050625 13.78078125 128.710625 14.80078125 129.390625 C14.80078125 130.380625 14.80078125 131.370625 14.80078125 132.390625 C3.58078125 132.390625 -7.63921875 132.390625 -19.19921875 132.390625 C-18.19921875 128.390625 -18.19921875 128.390625 -16.26171875 126.640625 C-11.27495656 121.2005208 -11.9308622 113.01758752 -12.01977539 106.0625 C-12.02430222 105.05981079 -12.02882904 104.05712158 -12.03349304 103.02404785 C-12.04440492 100.85898208 -12.05987638 98.69393541 -12.07945442 96.52893066 C-12.10974816 93.09836693 -12.1264632 89.66797479 -12.13951111 86.23730469 C-12.17915927 76.48749887 -12.24434536 66.73790118 -12.31567383 56.98828125 C-12.35844916 51.01389183 -12.38650647 45.03957185 -12.40597343 39.06506348 C-12.41651871 36.79411378 -12.43289123 34.52318317 -12.4552784 32.25231934 C-12.48656645 29.07437055 -12.49926269 25.89682944 -12.50805664 22.71875 C-12.52198456 21.78760376 -12.53591248 20.85645752 -12.55026245 19.89709473 C-12.54058039 13.0338172 -11.11095841 8.03100814 -7.89916992 1.91503906 C-5.34802842 -0.37267134 -3.37407344 -0.06336288 0 0 Z " fill="#010004" transform="translate(295.19921875,91.609375)"/>
<path d="M0 0 C9.57 0 19.14 0 29 0 C29 0.99 29 1.98 29 3 C28.16597656 3.29132813 27.33195312 3.58265625 26.47265625 3.8828125 C24.78462891 4.49769531 24.78462891 4.49769531 23.0625 5.125 C21.96035156 5.51945312 20.85820312 5.91390625 19.72265625 6.3203125 C9.93773675 10.45623348 2.91428457 17.6708576 -4.40283203 25.12158203 C-6.12150623 26.87144283 -7.85064249 28.61038342 -9.58203125 30.34765625 C-14.74855149 35.55091268 -19.8161517 40.78645791 -24.58203125 46.36376953 C-26.59407119 48.68551396 -28.74911462 50.84528209 -30.9375 53 C-31.70964844 53.763125 -32.48179688 54.52625 -33.27734375 55.3125 C-33.84582031 55.869375 -34.41429688 56.42625 -35 57 C-33.35064453 57.03867188 -33.35064453 57.03867188 -31.66796875 57.078125 C-20.43199241 57.45753814 -9.47759107 58.24629214 -1.01879883 66.57958984 C1.36211122 69.4341481 3.10638839 72.47046972 4.82421875 75.74609375 C5.34337357 76.72887299 5.34337357 76.72887299 5.87301636 77.73150635 C9.64728313 85.02776583 12.65274477 92.60081375 15.625 100.25 C20.47244302 116.20385431 20.47244302 116.20385431 30.140625 128.11303711 C32.57922108 128.80547333 32.57922108 128.80547333 36 129 C36 129.99 36 130.98 36 132 C31.87840578 133.37386474 28.00545595 133.26361748 23.6875 133.3125 C22.84509766 133.34150391 22.00269531 133.37050781 21.13476562 133.40039062 C15.56531485 133.45699959 12.36291434 132.78291095 8 129 C4.61251813 125.37275081 2.49464153 121.34850956 0.4375 116.875 C-0.06414673 115.80137207 -0.06414673 115.80137207 -0.57592773 114.70605469 C-3.81251563 107.65212165 -6.67440379 100.45173658 -9.5625 93.25 C-14.99234522 77.13126545 -14.99234522 77.13126545 -25.1875 64.1875 C-31.5146688 62.2167425 -37.40104035 61.19585518 -43.54272461 64.2746582 C-47.89708875 67.87838161 -50.13357849 71.0850005 -50.75097656 76.71948242 C-51.07507174 82.48623129 -50.8812329 88.2318946 -50.6875 94 C-50.65946167 96.00255276 -50.63533931 98.00516438 -50.61523438 100.0078125 C-50.77651619 113.86165236 -50.77651619 113.86165236 -47 127 C-50 126 -50 126 -51.17033386 124.25352478 C-52.1189465 121.67691959 -52.26032551 119.68747615 -52.2746582 116.94360352 C-52.28419022 115.93898575 -52.29372223 114.93436798 -52.30354309 113.89930725 C-52.30263168 112.82007492 -52.30172028 111.74084259 -52.30078125 110.62890625 C-52.30506638 109.51442612 -52.3093515 108.39994598 -52.31376648 107.25169373 C-52.31950753 104.89558593 -52.32001171 102.53946041 -52.31567383 100.18334961 C-52.312515 96.57960759 -52.33597291 92.97668733 -52.36132812 89.37304688 C-52.36360124 87.08333437 -52.36430456 84.79361966 -52.36328125 82.50390625 C-52.372491 81.42669815 -52.38170074 80.34949005 -52.39118958 79.23963928 C-52.34953524 72.5002909 -51.65208369 68.86281127 -46.984375 63.82421875 C-46.24703125 63.11910156 -45.5096875 62.41398437 -44.75 61.6875 C-42.03948558 59.08752074 -39.50074876 56.43602636 -37.07421875 53.57421875 C-33.70701713 49.68755528 -30.12402396 46.06152196 -26.47265625 42.4453125 C-25.57808212 41.55900902 -25.57808212 41.55900902 -24.66543579 40.65480042 C-22.17485891 38.19179031 -19.68083963 35.73234229 -17.18188477 33.27783203 C-3.21249368 21.05059237 -3.21249368 21.05059237 4 5 C3.34 4.54625 2.68 4.0925 2 3.625 C1.34 3.08875 0.68 2.5525 0 2 C0 1.34 0 0.68 0 0 Z " fill="#04010A" transform="translate(133,92)"/>
<path d="M0 0 C9.57 0 19.14 0 29 0 C29 0.99 29 1.98 29 3 C28.16597656 3.29132813 27.33195312 3.58265625 26.47265625 3.8828125 C24.78462891 4.49769531 24.78462891 4.49769531 23.0625 5.125 C21.96035156 5.51945312 20.85820312 5.91390625 19.72265625 6.3203125 C9.93773675 10.45623348 2.91428457 17.6708576 -4.40283203 25.12158203 C-6.12150623 26.87144283 -7.85064249 28.61038342 -9.58203125 30.34765625 C-14.74855149 35.55091268 -19.8161517 40.78645791 -24.58203125 46.36376953 C-26.59407119 48.68551396 -28.74911462 50.84528209 -30.9375 53 C-31.70964844 53.763125 -32.48179688 54.52625 -33.27734375 55.3125 C-33.84582031 55.869375 -34.41429688 56.42625 -35 57 C-33.80761719 57.04898438 -32.61523438 57.09796875 -31.38671875 57.1484375 C-29.82028932 57.22347604 -28.25388421 57.2990234 -26.6875 57.375 C-25.90181641 57.4059375 -25.11613281 57.436875 -24.30664062 57.46875 C-23.1706543 57.52675781 -23.1706543 57.52675781 -22.01171875 57.5859375 C-21.31522217 57.6173584 -20.61872559 57.6487793 -19.90112305 57.68115234 C-18 58 -18 58 -15 60 C-22.26 59.67 -29.52 59.34 -37 59 C-37 58.34 -37 57.68 -37 57 C-37.66 57 -38.32 57 -39 57 C-37.67802402 54.06617641 -36.25578692 52.01598504 -33.96240234 49.76708984 C-33.34771088 49.15900482 -32.73301941 48.5509198 -32.09970093 47.92440796 C-31.435159 47.27646271 -30.77061707 46.62851746 -30.0859375 45.9609375 C-29.39746735 45.28004059 -28.70899719 44.59914368 -27.99966431 43.89761353 C-25.06245174 40.99293844 -22.11374984 38.10003603 -19.16552734 35.20654297 C-4.0605042 22.14105178 -4.0605042 22.14105178 4 5 C3.34 4.54625 2.68 4.0925 2 3.625 C1.34 3.08875 0.68 2.5525 0 2 C0 1.34 0 0.68 0 0 Z " fill="#04010A" transform="translate(133,92)"/>
<path d="M0 0 C0.33 0 0.66 0 1 0 C1.00586624 1.08835144 1.01173248 2.17670288 1.01777649 3.29803467 C1.07519271 13.59573985 1.14805188 23.89323768 1.23571491 34.19073105 C1.28028682 39.48374637 1.31957151 44.77668705 1.34643555 50.06982422 C1.37260059 55.1857975 1.41309492 60.3014815 1.46318626 65.41727448 C1.47976618 67.36108021 1.49133535 69.30493588 1.49761391 71.24880219 C1.30172214 89.43403757 1.30172214 89.43403757 8 106 C9.7651936 107.39962481 9.7651936 107.39962481 11.6875 108.3125 C12.780625 108.869375 13.87375 109.42625 15 110 C15 110.99 15 111.98 15 113 C6.75 113 -1.5 113 -10 113 C-10 112.01 -10 111.02 -10 110 C-9.21625 109.4225 -8.4325 108.845 -7.625 108.25 C-3.95977968 105.10838258 -3.23673756 101.58231295 -2.80979538 96.92526436 C-2.71565143 94.5961039 -2.68732028 92.27465398 -2.68115234 89.94360352 C-2.67110672 89.06475998 -2.6610611 88.18591644 -2.65071106 87.28044128 C-2.61999977 84.39660248 -2.60287757 81.51285601 -2.5859375 78.62890625 C-2.56721615 76.62108065 -2.54764202 74.61326284 -2.5272522 72.60545349 C-2.47602721 67.33660482 -2.43634996 62.06773068 -2.39910889 56.79876709 C-2.35900878 51.41591132 -2.30794387 46.03316067 -2.2578125 40.65039062 C-2.16116729 30.10033436 -2.07672608 19.55021862 -2 9 C-1.67 9 -1.34 9 -1 9 C-1 38.04 -1 67.08 -1 97 C-0.34 97 0.32 97 1 97 C0.83734146 96.03178818 0.67468292 95.06357635 0.50709534 94.06602478 C-0.11504851 89.68324185 -0.1329903 85.36360954 -0.11352539 80.94360352 C-0.11367142 80.06475998 -0.11381744 79.18591644 -0.1139679 78.28044128 C-0.11327527 75.39657053 -0.10551348 72.51276562 -0.09765625 69.62890625 C-0.09578976 67.62108902 -0.09436695 65.61327134 -0.09336853 63.60545349 C-0.08956155 58.3365451 -0.07974688 53.06766453 -0.06866455 47.79876709 C-0.05841123 42.41597876 -0.05386252 37.03318591 -0.04882812 31.65039062 C-0.03812291 21.10024823 -0.02106844 10.55012643 0 0 Z " fill="#0E0027" transform="translate(185,111)"/>
<path d="M0 0 C1.15602856 2.31205711 1.1233535 3.61659624 1.12025452 6.18875122 C1.12162918 7.06657257 1.12300385 7.94439392 1.12442017 8.84881592 C1.11902725 10.2967453 1.11902725 10.2967453 1.11352539 11.77392578 C1.11367142 12.78858917 1.11381744 13.80325256 1.1139679 14.84866333 C1.11326928 18.21423454 1.10547922 21.57975092 1.09765625 24.9453125 C1.09579189 27.27415944 1.09436807 29.60300677 1.09336853 31.93185425 C1.08954476 38.07050656 1.07971566 44.20913533 1.06866455 50.34777832 C1.05844742 56.60815106 1.05387026 62.86852759 1.04882812 69.12890625 C1.03809329 81.4192812 1.02101853 93.70963864 1 106 C0.67 106 0.34 106 0 106 C-0.495 58.48 -0.495 58.48 -1 10 C-13.37084775 30.74530072 -13.37084775 30.74530072 -25.25 51.75 C-26.4632253 53.95329923 -27.67675718 56.15642969 -28.890625 58.359375 C-29.42880859 59.33841797 -29.96699219 60.31746094 -30.52148438 61.32617188 C-32.31525494 64.57012419 -34.14709683 67.78952421 -36 71 C-36.33 70.01 -36.66 69.02 -37 68 C-37.66 67.67 -38.32 67.34 -39 67 C-38.56107422 66.44159424 -38.12214844 65.88318848 -37.66992188 65.30786133 C-35.978363 62.97009728 -34.6342121 60.6215777 -33.28125 58.07421875 C-29.79374302 51.59205138 -26.15769734 45.19972294 -22.5 38.8125 C-21.98808105 37.91730652 -21.98808105 37.91730652 -21.46582031 37.00402832 C-14.38609186 24.62518558 -7.21297926 12.30168148 0 0 Z " fill="#16013A" transform="translate(283,102)"/>
<path d="M0 0 C0 0.66 0 1.32 0 2 C-0.99 2 -1.98 2 -3 2 C-3.268125 2.598125 -3.53625 3.19625 -3.8125 3.8125 C-5 6 -5 6 -6.5 7.4375 C-10.95533061 12.07846939 -10.30539294 18.20295566 -10.31884766 24.20629883 C-10.32889328 25.23115387 -10.3389389 26.25600891 -10.34928894 27.31192017 C-10.3801373 30.69361825 -10.39716089 34.07523709 -10.4140625 37.45703125 C-10.43277279 39.80401797 -10.4523461 42.15099796 -10.4727478 44.49797058 C-10.52408953 50.67105133 -10.56370448 56.8441539 -10.60089111 63.01733398 C-10.64091785 69.3182516 -10.69201629 75.61907831 -10.7421875 81.91992188 C-10.83897103 94.27988408 -10.92336818 106.63989758 -11 119 C-13.38393231 114.75713636 -13.28154843 110.85488555 -13.25878906 106.09155273 C-13.2622937 105.19180222 -13.26579834 104.2920517 -13.26940918 103.36503601 C-13.2782166 100.38781024 -13.27237731 97.410822 -13.265625 94.43359375 C-13.26697276 92.35815892 -13.26891422 90.2827244 -13.27142334 88.20729065 C-13.27437395 83.85194907 -13.270082 79.49668947 -13.26074219 75.14135742 C-13.24939741 69.58231473 -13.25587587 64.02346623 -13.26788712 58.46443081 C-13.27514991 54.17394069 -13.27279672 49.88349578 -13.26763153 45.59300423 C-13.26630464 43.54506469 -13.26790879 41.49712094 -13.27259064 39.44918633 C-13.3221227 11.6703397 -13.3221227 11.6703397 -7 3 C-2.93548387 0 -2.93548387 0 0 0 Z " fill="#833CD3" transform="translate(316,95)"/>
<path d="M0 0 C4.38648005 6.57972008 4.29624664 14.95498423 4.25878906 22.65307617 C4.2622937 23.56012802 4.26579834 24.46717987 4.26940918 25.40171814 C4.27812947 28.36554884 4.27241341 31.32913611 4.265625 34.29296875 C4.26697409 36.36941066 4.26891665 38.44585226 4.27142334 40.52229309 C4.27436115 44.85856149 4.27011898 49.19474712 4.26074219 53.53100586 C4.24932707 59.07905986 4.25592872 64.62692077 4.26788712 70.17496777 C4.27512377 74.4567052 4.27280984 78.73839705 4.26763153 83.02013588 C4.26630114 85.06579931 4.26792127 87.11146694 4.27259064 89.15712547 C4.27768793 92.01656402 4.26990159 94.87569193 4.25878906 97.73510742 C4.26283752 98.57319946 4.26688599 99.4112915 4.27105713 100.27478027 C4.23555297 105.22364787 3.58165152 109.30413168 2 114 C1.071878 111.215634 0.88598653 109.6325504 0.91770935 106.766922 C0.92474884 105.90455429 0.93178833 105.04218658 0.93904114 104.15368652 C0.95846016 102.73920227 0.95846016 102.73920227 0.97827148 101.29614258 C0.98787903 100.3008403 0.99748657 99.30553802 1.00738525 98.28007507 C1.04040976 94.98482262 1.0807291 91.6897013 1.12109375 88.39453125 C1.14539148 86.11195846 1.16923521 83.8293808 1.19264221 81.54679871 C1.25551759 75.5347031 1.32457454 69.52269364 1.39489746 63.51068115 C1.46554967 57.37760343 1.53038527 51.24446457 1.59570312 45.11132812 C1.72476 33.07415155 1.86034413 21.03705794 2 9 C1.34 9 0.68 9 0 9 C0 6.03 0 3.06 0 0 Z " fill="#7333BC" transform="translate(179,103)"/>
<path d="M0 0 C0.495 0.99 0.495 0.99 1 2 C1.66 2.33 2.32 2.66 3 3 C2.00987915 3.98226562 2.00987915 3.98226562 0.99975586 4.984375 C-1.48296466 7.44990126 -3.96330192 9.91777834 -6.44213867 12.38720703 C-7.50892297 13.44900861 -8.57660853 14.50990558 -9.64526367 15.56982422 C-15.12498927 21.00591735 -20.53196374 26.45053072 -25.54907227 32.32421875 C-27.5715436 34.66011699 -29.73659769 36.83295773 -31.9375 39 C-32.70964844 39.763125 -33.48179688 40.52625 -34.27734375 41.3125 C-34.84582031 41.869375 -35.41429688 42.42625 -36 43 C-34.80761719 43.04898438 -33.61523438 43.09796875 -32.38671875 43.1484375 C-30.82028932 43.22347604 -29.25388421 43.2990234 -27.6875 43.375 C-26.90181641 43.4059375 -26.11613281 43.436875 -25.30664062 43.46875 C-24.1706543 43.52675781 -24.1706543 43.52675781 -23.01171875 43.5859375 C-22.31522217 43.6173584 -21.61872559 43.6487793 -20.90112305 43.68115234 C-19 44 -19 44 -16 46 C-23.26 45.67 -30.52 45.34 -38 45 C-38 44.34 -38 43.68 -38 43 C-38.66 43 -39.32 43 -40 43 C-38.67154793 40.0494589 -37.23013034 37.98753835 -34.93066406 35.71948242 C-34.30951721 35.10171432 -33.68837036 34.48394623 -33.04840088 33.84745789 C-32.37758484 33.19010147 -31.7067688 32.53274506 -31.015625 31.85546875 C-30.3224115 31.16745682 -29.629198 30.47944489 -28.91497803 29.77058411 C-26.6980163 27.57141773 -24.47450348 25.3790354 -22.25 23.1875 C-20.04061343 21.00586348 -17.83274714 18.82274372 -15.62786865 16.6365509 C-14.25718947 15.27798156 -12.88384688 13.92209213 -11.50738525 12.56938171 C-7.44286376 8.54674552 -3.66692524 4.38905902 0 0 Z " fill="#1F063F" transform="translate(134,106)"/>
<path d="M0 0 C0.66 0 1.32 0 2 0 C3.1654042 1.46507957 4.33036982 2.93051217 5.4921875 4.3984375 C7.95495009 7.01432523 10.81571973 8.37664143 14 10 C14 10.99 14 11.98 14 13 C5.75 13 -2.5 13 -11 13 C-11 12.01 -11 11.02 -11 10 C-9.37946188 8.61096733 -7.70294787 7.28667172 -6 6 C-4.3142876 4.35259924 -2.6436814 2.68933922 -1 1 C-0.67 0.67 -0.34 0.34 0 0 Z " fill="#05010A" transform="translate(186,211)"/>
<path d="M0 0 C0.33 0 0.66 0 1 0 C1.02316233 13.08240731 1.04093498 26.16480975 1.05181217 39.24723339 C1.05703246 45.32181205 1.06411467 51.39637668 1.07543945 57.47094727 C1.08629859 63.33237661 1.09228328 69.19379247 1.09487724 75.05523109 C1.09672602 77.29234339 1.10033616 79.52945495 1.10573006 81.76656151 C1.11298058 84.89802018 1.11398924 88.02942297 1.11352539 91.16088867 C1.11712067 92.08733688 1.12071594 93.0137851 1.12442017 93.9683075 C1.11777533 98.10942478 1.0556681 101.96272229 0 106 C-0.33 106 -0.66 106 -1 106 C-0.67 73 -0.34 40 0 6 C-0.66 6 -1.32 6 -2 6 C-3.49140021 9.62197194 -4.7874262 13.27566618 -6 17 C-6.66 17 -7.32 17 -8 17 C-8 17.66 -8 18.32 -8 19 C-8.66 19 -9.32 19 -10 19 C-8.40376856 14.60616294 -6.21975667 10.71004193 -3.875 6.6875 C-3.50246094 6.04232422 -3.12992187 5.39714844 -2.74609375 4.73242188 C-1.83367787 3.15324055 -0.91724491 1.57638136 0 0 Z " fill="#8043C9" transform="translate(282,110)"/>
<path d="M0 0 C0.66 0 1.32 0 2 0 C1.51171875 1.5625 1.0234375 3.125 0.53515625 4.6875 C-1.01658836 11.39284896 -1.14124947 18.05971008 -1.11352539 24.90429688 C-1.11367142 25.861315 -1.11381744 26.81833313 -1.1139679 27.80435181 C-1.11327567 30.94250824 -1.10551576 34.08060404 -1.09765625 37.21875 C-1.09578962 39.4045 -1.09436687 41.59025041 -1.09336853 43.77600098 C-1.08956267 49.51014372 -1.07974896 55.24426087 -1.06866455 60.97839355 C-1.05840882 66.83715468 -1.05386201 72.69591997 -1.04882812 78.5546875 C-1.03812487 90.03646954 -1.02107176 101.51823263 -1 113 C-1.99 112.34 -2.98 111.68 -4 111 C-4.3074918 108.03405421 -4.4196692 105.27563905 -4.40405273 102.30615234 C-4.41091599 101.40497177 -4.41777924 100.5037912 -4.42485046 99.57530212 C-4.44323098 96.57868915 -4.43925955 93.58259511 -4.43359375 90.5859375 C-4.43815549 88.49720083 -4.44346103 86.40846565 -4.44947815 84.31973267 C-4.45843522 79.9263096 -4.45596288 75.53306796 -4.44604492 71.13964844 C-4.43464732 65.54947862 -4.45461076 59.95994917 -4.48396206 54.36986351 C-4.50246452 50.04568583 -4.50200224 45.72165691 -4.49632454 41.39744949 C-4.49617252 39.33967832 -4.50211669 37.28189627 -4.51461601 35.22416306 C-4.57898182 22.87170178 -3.72995344 11.81737069 0 0 Z " fill="#110030" transform="translate(305,101)"/>
<path d="M0 0 C2.34915285 2.25912544 3.78321216 4.23365317 5.1875 7.1875 C5.53167969 7.90292969 5.87585938 8.61835937 6.23046875 9.35546875 C6.48441406 9.89816406 6.73835937 10.44085938 7 11 C5.02 11 3.04 11 1 11 C1.10733731 20.89196989 1.21993676 30.78386432 1.33933926 40.67569637 C1.39460965 45.26839178 1.44803609 49.8610935 1.49731445 54.45385742 C1.54489747 58.88239331 1.59723781 63.31084929 1.65294075 67.73929024 C1.67339187 69.43263331 1.6921003 71.12599831 1.70907402 72.81937981 C1.73305728 75.18297163 1.76311966 77.54641104 1.79467773 79.90991211 C1.8004332 80.61697296 1.80618866 81.32403381 1.81211853 82.05252075 C1.58838444 85.30774294 1.58838444 85.30774294 3 88 C3.07205511 89.68608966 3.08386068 91.37500659 3.0625 93.0625 C3.05347656 93.98160156 3.04445312 94.90070313 3.03515625 95.84765625 C3.02355469 96.55792969 3.01195312 97.26820313 3 98 C-0.17518123 92.28467379 -0.14184319 86.67571786 -0.11352539 80.26245117 C-0.11367142 79.39365326 -0.11381744 78.52485535 -0.1139679 77.62973022 C-0.11327306 74.76745071 -0.10550073 71.90523685 -0.09765625 69.04296875 C-0.09579055 67.05471329 -0.09436736 65.06645738 -0.09336853 63.07820129 C-0.08955534 57.85200729 -0.07973528 52.6258412 -0.06866455 47.3996582 C-0.05842467 42.06396868 -0.05386539 36.72827464 -0.04882812 31.39257812 C-0.03811194 20.92837317 -0.0210499 10.46418891 0 0 Z " fill="#7835C8" transform="translate(186,111)"/>
<path d="M0 0 C0 0.99 0 1.98 0 3 C4.95 3.33 9.9 3.66 15 4 C15 4.99 15 5.98 15 7 C14.45730469 6.84789062 13.91460937 6.69578125 13.35546875 6.5390625 C7.61078389 5.2243585 1.86644762 4.59382846 -3.56103516 7.25634766 C-7.90332031 10.87291302 -10.13277212 14.08715367 -10.75024414 19.72021484 C-11.07506017 25.48676391 -10.88122712 31.23206674 -10.6875 37 C-10.65946167 39.00255276 -10.63533931 41.00516438 -10.61523438 43.0078125 C-10.77651619 56.86165236 -10.77651619 56.86165236 -7 70 C-10 69 -10 69 -11.17033386 67.25352478 C-12.1189465 64.67691959 -12.26032551 62.68747615 -12.2746582 59.94360352 C-12.28419022 58.93898575 -12.29372223 57.93436798 -12.30354309 56.89930725 C-12.30263168 55.82007492 -12.30172028 54.74084259 -12.30078125 53.62890625 C-12.30506638 52.51442612 -12.3093515 51.39994598 -12.31376648 50.25169373 C-12.31950753 47.89558593 -12.32001171 45.53946041 -12.31567383 43.18334961 C-12.312515 39.57960759 -12.33597291 35.97668733 -12.36132812 32.37304688 C-12.36360124 30.08333437 -12.36430456 27.79361966 -12.36328125 25.50390625 C-12.372491 24.42669815 -12.38170074 23.34949005 -12.39118958 22.23963928 C-12.34820028 15.28430566 -11.52191488 11.73969683 -6.73828125 6.54296875 C-5.53751953 5.37701172 -5.53751953 5.37701172 -4.3125 4.1875 C-3.50425781 3.39730469 -2.69601563 2.60710937 -1.86328125 1.79296875 C-1.24839844 1.20128906 -0.63351563 0.60960937 0 0 Z " fill="#0F0129" transform="translate(93,149)"/>
<path d="M0 0 C2.59621201 2.59621201 2.91639152 4.54072767 3.12304783 8.1476326 C3.12212604 8.92562588 3.12120424 9.70361916 3.12025452 10.50518799 C3.12162918 11.40258698 3.12300385 12.29998596 3.12442017 13.22457886 C3.12082489 14.20137604 3.11722961 15.17817322 3.11352539 16.18457031 C3.11367142 17.2190329 3.11381744 18.25349548 3.1139679 19.31930542 C3.11327117 22.73893327 3.10548994 26.15850666 3.09765625 29.578125 C3.09579122 31.94895396 3.09436772 34.31978331 3.09336853 36.69061279 C3.08955006 42.93116316 3.07972545 49.17169027 3.06866455 55.41223145 C3.05843606 61.7800261 3.05386782 68.1478245 3.04882812 74.515625 C3.03810262 87.01042689 3.02103419 99.50521151 3 112 C2.67 112 2.34 112 2 112 C2 78.01 2 44.02 2 9 C1.34 9 0.68 9 0 9 C-1.15941038 5.52176885 -0.70820884 3.54104422 0 0 Z " fill="#853EDA" transform="translate(59,98)"/>
<path d="M0 0 C1.09586835 3.28760506 0.88556067 4.20539669 0.08398438 7.4609375 C-1.15562372 13.21488484 -1.31320118 18.7554284 -1.34375 24.625 C-1.3583728 25.69371338 -1.37299561 26.76242676 -1.38806152 27.86352539 C-1.44993929 32.39669353 -1.49019443 36.92998575 -1.53173828 41.46337891 C-1.56533224 44.78823463 -1.61043116 48.112794 -1.65625 51.4375 C-1.6615271 52.46762207 -1.6668042 53.49774414 -1.67224121 54.55908203 C-1.68565552 55.5076709 -1.69906982 56.45625977 -1.71289062 57.43359375 C-1.72018188 58.26947021 -1.72747314 59.10534668 -1.73498535 59.96655273 C-2 62 -2 62 -4 64 C-4.10169191 56.17133723 -4.1715885 48.34284578 -4.21972656 40.51367188 C-4.23753649 37.85189753 -4.26706285 35.19098972 -4.30175781 32.52929688 C-4.35045548 28.6965042 -4.37301116 24.86429637 -4.390625 21.03125 C-4.41127014 19.84760864 -4.43191528 18.66396729 -4.45318604 17.44445801 C-4.45506678 10.46889693 -3.69550295 5.95883866 0 0 Z " fill="#7B32CF" transform="translate(86,96)"/>
<path d="M0 0 C0.33 0 0.66 0 1 0 C1.54181016 27.42161403 -2.26719905 54.32548929 -15 79 C-15.33 79 -15.66 79 -16 79 C-16.495 76.03 -16.495 76.03 -17 73 C-15.515 72.505 -15.515 72.505 -14 72 C-13.67 69.36 -13.34 66.72 -13 64 C-12.01 64 -11.02 64 -10 64 C-10 62.35 -10 60.7 -10 59 C-9.34 59 -8.68 59 -8 59 C-7.89042969 58.44054687 -7.78085937 57.88109375 -7.66796875 57.3046875 C-7.43013672 56.10199219 -7.43013672 56.10199219 -7.1875 54.875 C-7.00574219 53.95460937 -6.82398438 53.03421875 -6.63671875 52.0859375 C-6.20680745 50.00231833 -5.75036272 47.92402328 -5.26953125 45.8515625 C-1.80030727 30.74194742 -0.74307877 15.44821651 0 0 Z " fill="#7939C2" transform="translate(369,161)"/>
<path d="M0 0 C0.33 0.66 0.66 1.32 1 2 C1.66 2.33 2.32 2.66 3 3 C-4.26 10.26 -11.52 17.52 -19 25 C-19.33 23.68 -19.66 22.36 -20 21 C-18.92358398 19.37182617 -18.92358398 19.37182617 -17.24609375 17.79296875 C-16.63830078 17.20580078 -16.03050781 16.61863281 -15.40429688 16.01367188 C-14.75525391 15.41103516 -14.10621094 14.80839844 -13.4375 14.1875 C-12.1837238 12.9960878 -10.9324055 11.80208356 -9.68359375 10.60546875 C-9.06983887 10.01813965 -8.45608398 9.43081055 -7.82373047 8.82568359 C-5.0310499 6.0300122 -2.52477109 3.03828385 0 0 Z " fill="#12002D" transform="translate(134,106)"/>
<path d="M0 0 C0.33 0.66 0.66 1.32 1 2 C-2.75 7.875 -2.75 7.875 -5 9 C-5.33 22.86 -5.66 36.72 -6 51 C-6.33 51 -6.66 51 -7 51 C-7.17358258 44.8620435 -7.30032189 38.72552784 -7.38452148 32.58569336 C-7.41963386 30.49917706 -7.46733689 28.41283189 -7.52807617 26.3269043 C-7.6134035 23.32037086 -7.65277985 20.31612078 -7.68359375 17.30859375 C-7.71972275 16.38227646 -7.75585175 15.45595917 -7.79307556 14.50157166 C-7.79620798 9.28568374 -7.20471422 6.62392591 -3.45727539 2.85571289 C-2.32681666 1.87782306 -1.18117109 0.91599144 0 0 Z " fill="#7332BE" transform="translate(89,157)"/>
<path d="M0 0 C0.66 0 1.32 0 2 0 C1.38857603 7.45937249 1.38857603 7.45937249 -0.4375 10 C-2 11 -2 11 -4 11 C-4 11.99 -4 12.98 -4 14 C7.55 14 19.1 14 31 14 C31 14.33 31 14.66 31 15 C19.12 15 7.24 15 -5 15 C-5.33 13.02 -5.66 11.04 -6 9 C-5.01 9 -4.02 9 -3 9 C-3 8.34 -3 7.68 -3 7 C-2.01 7 -1.02 7 0 7 C0 4.69 0 2.38 0 0 Z " fill="#8740D9" transform="translate(59,210)"/>
<path d="M0 0 C0.66 0.33 1.32 0.66 2 1 C-1.46743021 7.81102362 -1.46743021 7.81102362 -3.9375 8.6875 C-4.618125 8.790625 -5.29875 8.89375 -6 9 C-6.804375 9.66 -7.60875 10.32 -8.4375 11 C-11.09612686 13.07502584 -12.70014614 13.62287384 -16 14 C-11.65208747 8.00287927 -6.05706051 4.17947783 0 0 Z M-5 8 C-4.34 8 -3.68 8 -3 8 C-3.33 8.99 -3.66 9.98 -4 11 C-4.66 10.67 -5.32 10.34 -6 10 C-5.67 9.34 -5.34 8.68 -5 8 Z " fill="#863AE3" transform="translate(74,33)"/>
<path d="M0 0 C1.32 0 2.64 0 4 0 C3.67 0.99 3.34 1.98 3 3 C6.3 3 9.6 3 13 3 C9.51812247 5.32125169 6.12828961 6.15122685 2.125 7.125 C1.41730469 7.30675781 0.70960938 7.48851562 -0.01953125 7.67578125 C-3.74802173 8.59922489 -7.1557375 9.22613309 -11 9 C-9 8 -7 7 -5 6 C-5.33 5.34 -5.66 4.68 -6 4 C-4.02 3.67 -2.04 3.34 0 3 C0 2.01 0 1.02 0 0 Z " fill="#8134DE" transform="translate(231,328)"/>
<path d="M0 0 C0 0.99 0 1.98 0 3 C4.95 3.33 9.9 3.66 15 4 C15 4.99 15 5.98 15 7 C14.45988281 6.8453125 13.91976562 6.690625 13.36328125 6.53125 C8.56943169 5.45362431 3.85219226 5.19024692 -1 6 C-3.90812457 7.94198635 -5.95566012 10.17823509 -8 13 C-8.66 12.01 -9.32 11.02 -10 10 C-6.7 6.7 -3.4 3.4 0 0 Z " fill="#12002D" transform="translate(93,149)"/>
<path d="M0 0 C9.57 0 19.14 0 29 0 C28.67 0.99 28.34 1.98 28 3 C28 2.34 28 1.68 28 1 C20.41 1.33 12.82 1.66 5 2 C5.33 2.66 5.66 3.32 6 4 C6.3125 7.4375 6.3125 7.4375 6 11 C4 12.9375 4 12.9375 2 14 C2.66 11.03 3.32 8.06 4 5 C3.01 4.319375 3.01 4.319375 2 3.625 C1.34 3.08875 0.68 2.5525 0 2 C0 1.34 0 0.68 0 0 Z " fill="#13012F" transform="translate(133,92)"/>
<path d="M0 0 C2.9380994 1.32500172 5.01091009 2.76299408 7.27734375 5.046875 C7.87353516 5.645 8.46972656 6.243125 9.08398438 6.859375 C9.69564453 7.48328125 10.30730469 8.1071875 10.9375 8.75 C11.54529297 9.3584375 12.15308594 9.966875 12.77929688 10.59375 C16.39683462 14.24640947 19.76846572 18.00197277 23 22 C22.67 22.66 22.34 23.32 22 24 C20.35 23.67 18.7 23.34 17 23 C16.82726562 22.00742188 16.65453125 21.01484375 16.4765625 19.9921875 C14.990883 14.79099911 11.22645911 11.72064264 7.375 8.125 C5.98523093 6.79609673 4.59711104 5.46546582 3.2109375 4.1328125 C2.59524902 3.55418457 1.97956055 2.97555664 1.34521484 2.37939453 C0 1 0 1 0 0 Z " fill="#7D3DCE" transform="translate(312,47)"/>
<path d="M0 0 C3.06253099 3.06253099 4.75885136 4.95607144 6.796875 8.546875 C7.28027344 9.39121094 7.76367188 10.23554688 8.26171875 11.10546875 C8.75285156 11.97816406 9.24398437 12.85085937 9.75 13.75 C10.25660156 14.63816406 10.76320312 15.52632812 11.28515625 16.44140625 C12.52922829 18.62440058 13.76726444 20.8105904 15 23 C14.34 23.33 13.68 23.66 13 24 C13 23.34 13 22.68 13 22 C12.34 22 11.68 22 11 22 C7.24039194 18.24039194 6.41105855 15.24099655 6 10 C5.01 10.33 4.02 10.66 3 11 C2.01 7.37 1.02 3.74 0 0 Z " fill="#8437DC" transform="translate(218,164)"/>
<path d="M0 0 C0.99 0.99 1.98 1.98 3 3 C2.09238938 4.75471386 1.17349289 6.50359264 0.25 8.25 C-0.26046875 9.22453125 -0.7709375 10.1990625 -1.296875 11.203125 C-2.94819881 13.91493199 -4.66491299 15.86796403 -7 18 C-10 13.25 -10 13.25 -10 11 C-7.03 11.495 -7.03 11.495 -4 12 C-4 11.01 -4 10.02 -4 9 C-3.34 9 -2.68 9 -2 9 C-1.34 6.03 -0.68 3.06 0 0 Z " fill="#8436DC" transform="translate(251,151)"/>
<path d="M0 0 C1.71703125 0.16242187 1.71703125 0.16242187 3.46875 0.328125 C6.8917713 0.71030699 10.2882024 1.13412597 13.6875 1.6875 C13.6875 2.0175 13.6875 2.3475 13.6875 2.6875 C4.95840127 5.11905255 -1.68731724 4.23803099 -10.3125 1.6875 C-6.7446282 -0.57822881 -4.14139689 -0.40392003 0 0 Z " fill="#8236DE" transform="translate(206.3125,0.3125)"/>
<path d="M0 0 C0.598125 0.185625 1.19625 0.37125 1.8125 0.5625 C4.16408762 1.22093687 4.16408762 1.22093687 7 0 C7 4 7 4 6 7 C6.99 7.33 7.98 7.66 9 8 C9 9.98 9 11.96 9 14 C5.15237434 10.5798883 2.39365978 6.53225744 0 2 C0 1.34 0 0.68 0 0 Z " fill="#8A37EB" transform="translate(23,251)"/>
<path d="M0 0 C11.55 0 23.1 0 35 0 C35 0.99 35 1.98 35 3 C34.01 3.33 33.02 3.66 32 4 C32 3.01 32 2.02 32 1 C22.1 1.33 12.2 1.66 2 2 C2.33 2.66 2.66 3.32 3 4 C2.01 3.67 1.02 3.34 0 3 C0 2.01 0 1.02 0 0 Z " fill="#130131" transform="translate(55,92)"/>
<path d="M0 0 C0.33 0.66 0.66 1.32 1 2 C0.67 2.66 0.34 3.32 0 4 C9.9 4 19.8 4 30 4 C30.33 3.34 30.66 2.68 31 2 C31 2.99 31 3.98 31 5 C19.78 5 8.56 5 -3 5 C-2.67 3.68 -2.34 2.36 -2 1 C-1.34 0.67 -0.68 0.34 0 0 Z " fill="#0E0029" transform="translate(279,219)"/>
<path d="M0 0 C0 3.59857954 -0.95830515 5.09451118 -3 8 C-3.66 8 -4.32 8 -5 8 C-5.2475 8.598125 -5.495 9.19625 -5.75 9.8125 C-7.19482573 12.34094503 -8.48280545 13.55070617 -11 15 C-11.99 14.67 -12.98 14.34 -14 14 C-13.01 13.67 -12.02 13.34 -11 13 C-10.32394392 11.67140284 -9.65917616 10.33705236 -9 9 C-7.50622437 7.37140707 -5.96011936 5.78983024 -4.375 4.25 C-3.55773437 3.45078125 -2.74046875 2.6515625 -1.8984375 1.828125 C-0.95871094 0.92320313 -0.95871094 0.92320313 0 0 Z " fill="#7A34CD" transform="translate(124,121)"/>
<path d="M0 0 C0 3 0 3 -2 6 C4.6 6 11.2 6 18 6 C18 5.34 18 4.68 18 4 C18.66 4 19.32 4 20 4 C20 4.99 20 5.98 20 7 C11.75 7 3.5 7 -5 7 C-5 6.01 -5 5.02 -5 4 C-2.5 1.8125 -2.5 1.8125 0 0 Z " fill="#130132" transform="translate(180,217)"/>
<path d="M0 0 C8.35598853 2.9465059 15.36124657 9.25837541 22 15 C17.95786145 15 15.26289618 13.20038264 12 11 C10.66666667 9.66666667 9.33333333 8.33333333 8 7 C6.78573151 6.2865163 5.55510991 5.60039332 4.3125 4.9375 C1 3 1 3 0 0 Z " fill="#7F3ED0" transform="translate(288,29)"/>
<path d="M0 0 C0.99 0.33 1.98 0.66 3 1 C1.04480616 2.17192047 -0.9142539 3.3373929 -2.875 4.5 C-3.96554687 5.1496875 -5.05609375 5.799375 -6.1796875 6.46875 C-9 8 -9 8 -11 8 C-11.33 6.68 -11.66 5.36 -12 4 C-9.08493545 2.05662363 -8.17028308 1.72325333 -4.875 1.4375 C-1.22536034 1.43313101 -1.22536034 1.43313101 0 0 Z " fill="#8636E0" transform="translate(285,311)"/>
<path d="M0 0 C1.65 0.99 3.3 1.98 5 3 C2.61042731 6.24299151 0.7952131 8.50902342 -3 10 C-2.979375 9.21625 -2.95875 8.4325 -2.9375 7.625 C-2.81315937 5.01885039 -2.81315937 5.01885039 -4 3 C-2.68 2.67 -1.36 2.34 0 2 C0 1.34 0 0.68 0 0 Z " fill="#8933EA" transform="translate(308,289)"/>
<path d="M0 0 C2.66750964 3.41193094 4.68310254 6.97093552 6.71875 10.78125 C7.96037046 13.04927196 7.96037046 13.04927196 9.64453125 15.109375 C11.37509093 17.52318159 11.24192947 19.09684641 11 22 C8.7696735 19.93671984 7.31948998 18.02298536 5.95703125 15.3125 C5.43012695 14.26449219 5.43012695 14.26449219 4.89257812 13.1953125 C4.53615234 12.47085938 4.17972656 11.74640625 3.8125 11 C3.26045898 9.91332031 3.26045898 9.91332031 2.69726562 8.8046875 C2.34986328 8.10601562 2.00246094 7.40734375 1.64453125 6.6875 C1.17043823 5.73423828 1.17043823 5.73423828 0.68676758 4.76171875 C0 3 0 3 0 0 Z " fill="#803CD8" transform="translate(12,229)"/>
<path d="M0 0 C0.33 0 0.66 0 1 0 C1.33715892 5.5139531 0.44112982 9.00438349 -2 13.9375 C-2.556875 15.08089844 -3.11375 16.22429687 -3.6875 17.40234375 C-4.120625 18.25957031 -4.55375 19.11679688 -5 20 C-5.33 20 -5.66 20 -6 20 C-6.33 18.02 -6.66 16.04 -7 14 C-6.01 13.67 -5.02 13.34 -4 13 C-3.67 10.36 -3.34 7.72 -3 5 C-2.01 5 -1.02 5 0 5 C0 3.35 0 1.7 0 0 Z " fill="#8839E0" transform="translate(359,220)"/>
<path d="M0 0 C2 3 2 3 1.875 5.5 C0.82064713 8.51243677 -0.26560283 9.42565011 -3 11 C-3.66 11 -4.32 11 -5 11 C-5 11.66 -5 12.32 -5 13 C-5.66 12.67 -6.32 12.34 -7 12 C-4.69 8.04 -2.38 4.08 0 0 Z " fill="#8336E1" transform="translate(245,175)"/>
<path d="M0 0 C2.51827245 3.77740868 3.43053028 7.4686581 4.625 11.8125 C4.96917969 13.00456055 4.96917969 13.00456055 5.3203125 14.22070312 C6.53572551 18.59401957 7.280583 22.41468309 7 27 C6.67 27 6.34 27 6 27 C5.67 24.03 5.34 21.06 5 18 C4.01 18.33 3.02 18.66 2 19 C2.03480469 18.12988281 2.03480469 18.12988281 2.0703125 17.2421875 C2.18365588 12.33603836 1.72987488 8.64903873 0 4 C0 2.68 0 1.36 0 0 Z " fill="#813ACF" transform="translate(360,116)"/>
<path d="M0 0 C0 0.66 0 1.32 0 2 C-0.99 2 -1.98 2 -3 2 C-3.268125 2.598125 -3.53625 3.19625 -3.8125 3.8125 C-5 6 -5 6 -6.5 7.4375 C-8.39105734 9.4073514 -9.00571936 11.48115572 -10 14 C-10.99 14.495 -10.99 14.495 -12 15 C-10.40898194 9.06278626 -8.91005343 5.02876179 -4 1 C-2 0 -2 0 0 0 Z " fill="#7C36CE" transform="translate(316,95)"/>
<path d="M0 0 C0.99 0.33 1.98 0.66 3 1 C2.01 1.495 2.01 1.495 1 2 C0.566875 2.99 0.566875 2.99 0.125 4 C-1 6 -1 6 -2.625 6.6875 C-3.40875 6.790625 -4.1925 6.89375 -5 7 C-5.67289063 7.09023437 -6.34578125 7.18046875 -7.0390625 7.2734375 C-9.02385541 7.53293339 -11.01180053 7.7680434 -13 8 C-9.267612 4.42988974 -4.9050011 3.89086558 0 3 C0 2.01 0 1.02 0 0 Z " fill="#8137DB" transform="translate(162,92)"/>
<path d="M0 0 C0.99 0 1.98 0 3 0 C3 0.99 3 1.98 3 3 C4.78857422 3.07347656 4.78857422 3.07347656 6.61328125 3.1484375 C8.17971068 3.22347604 9.74611579 3.2990234 11.3125 3.375 C12.09818359 3.4059375 12.88386719 3.436875 13.69335938 3.46875 C14.8293457 3.52675781 14.8293457 3.52675781 15.98828125 3.5859375 C17.03302612 3.63306885 17.03302612 3.63306885 18.09887695 3.68115234 C20 4 20 4 23 6 C15.74 5.67 8.48 5.34 1 5 C1 4.34 1 3.68 1 3 C0.34 3 -0.32 3 -1 3 C-0.67 2.01 -0.34 1.02 0 0 Z " fill="#170437" transform="translate(95,146)"/>
<path d="M0 0 C1.11375 0.9590625 1.11375 0.9590625 2.25 1.9375 C4.78733945 3.84050459 6.02234096 4.38393261 9 5 C11 7 11 7 11.125 9.625 C11.08375 10.40875 11.0425 11.1925 11 12 C2.63371151 4.94975689 2.63371151 4.94975689 0 2 C0 1.34 0 0.68 0 0 Z " fill="#853CDD" transform="translate(41,276)"/>
<path d="M0 0 C0.33 0.66 0.66 1.32 1 2 C-0.07674702 4.28258633 -1.19546116 6.4356434 -2.4375 8.625 C-2.77587891 9.23601562 -3.11425781 9.84703125 -3.46289062 10.4765625 C-4.30146192 11.988353 -5.14982577 13.49470399 -6 15 C-6.33 15 -6.66 15 -7 15 C-7 13.35 -7 11.7 -7 10 C-6.34 10 -5.68 10 -5 10 C-5 9.01 -5 8.02 -5 7 C-4.34 7 -3.68 7 -3 7 C-3.33 5.02 -3.66 3.04 -4 1 C-2.68 0.67 -1.36 0.34 0 0 Z " fill="#843AD9" transform="translate(352,240)"/>
<path d="M0 0 C1.65 0 3.3 0 5 0 C5 0.99 5 1.98 5 3 C11.6 3.33 18.2 3.66 25 4 C25 4.33 25 4.66 25 5 C21.95736733 5.10845027 18.91863796 5.18752063 15.875 5.25 C15.0190625 5.28351563 14.163125 5.31703125 13.28125 5.3515625 C7.5289808 5.44005895 4.40544678 4.784351 0 1 C0 0.67 0 0.34 0 0 Z " fill="#180239" transform="translate(141,220)"/>
<path d="M0 0 C0.66 0.33 1.32 0.66 2 1 C2 1.66 2 2.32 2 3 C1.34 3 0.68 3 0 3 C-0.33 4.65 -0.66 6.3 -1 8 C-1.99 8.33 -2.98 8.66 -4 9 C-4.33 10.65 -4.66 12.3 -5 14 C-5.66 14 -6.32 14 -7 14 C-5.53967505 8.68972746 -3.01679014 4.53669968 0 0 Z " fill="#7E37D5" transform="translate(253,161)"/>
<path d="M0 0 C1.231394 2.46278801 1.07159196 4.2795055 1 7 C0.34 7 -0.32 7 -1 7 C-1.103125 7.639375 -1.20625 8.27875 -1.3125 8.9375 C-1.539375 9.618125 -1.76625 10.29875 -2 11 C-2.99 11.33 -3.98 11.66 -5 12 C-4.42365861 7.24518354 -2.44931479 4.02951788 0 0 Z " fill="#13032D" transform="translate(283,102)"/>
<path d="M0 0 C0.66 0 1.32 0 2 0 C1.38857603 7.45937249 1.38857603 7.45937249 -0.4375 10 C-2 11 -2 11 -4 11 C-4.33 11.99 -4.66 12.98 -5 14 C-5.33 12.35 -5.66 10.7 -6 9 C-5.01 9 -4.02 9 -3 9 C-3 8.34 -3 7.68 -3 7 C-2.01 7 -1.02 7 0 7 C0 4.69 0 2.38 0 0 Z " fill="#7B37D0" transform="translate(59,210)"/>
<path d="M0 0 C0.66 0.99 1.32 1.98 2 3 C1.34 3 0.68 3 0 3 C-1.49140021 6.62197194 -2.7874262 10.27566618 -4 14 C-4.66 14 -5.32 14 -6 14 C-6 14.66 -6 15.32 -6 16 C-6.66 16 -7.32 16 -8 16 C-6.57250019 12.20950293 -4.83763458 8.72877544 -2.875 5.1875 C-2.33617187 4.21167969 -1.79734375 3.23585938 -1.2421875 2.23046875 C-0.83226562 1.49441406 -0.42234375 0.75835937 0 0 Z " fill="#7D38D0" transform="translate(280,113)"/>
<path d="M0 0 C2.475 0.99 2.475 0.99 5 2 C-0.14285714 7.57142857 -0.14285714 7.57142857 -4 8 C-2.66666667 5.33333333 -1.33333333 2.66666667 0 0 Z " fill="#0B001A" transform="translate(139,100)"/>
<path d="M0 0 C0.66 0 1.32 0 2 0 C3.32 2.64 4.64 5.28 6 8 C4.02 8 2.04 8 0 8 C0 5.36 0 2.72 0 0 Z " fill="#8336DC" transform="translate(187,114)"/>
<path d="M0 0 C1.12758089 3.38274266 0.81750262 4.76778223 0.0625 8.1875 C-0.13214844 9.08855469 -0.32679687 9.98960938 -0.52734375 10.91796875 C-0.68332031 11.60503906 -0.83929688 12.29210937 -1 13 C-1.66 13 -2.32 13 -3 13 C-3.27429625 7.60550707 -3.36055646 4.48074195 0 0 Z " fill="#8237D9" transform="translate(86,96)"/>
<path d="M0 0 C2.67927341 4.01891012 2.15601248 6.24161923 2 11 C-0.74277578 7.80009492 -2.6302836 4.99500618 -4 1 C-2.68 0.67 -1.36 0.34 0 0 Z " fill="#8537E0" transform="translate(211,105)"/>
<path d="M0 0 C0.99 0 1.98 0 3 0 C4.49140021 3.62197194 5.7874262 7.27566618 7 11 C7.66 11 8.32 11 9 11 C8.67 12.32 8.34 13.64 8 15 C6.66121428 12.8782637 5.32884524 10.75294812 4 8.625 C3.6184375 8.02171875 3.236875 7.4184375 2.84375 6.796875 C0 2.2265625 0 2.2265625 0 0 Z " fill="#7F38D4" transform="translate(224,134)"/>
<path d="M0 0 C0.33 0.66 0.66 1.32 1 2 C1.66 2.33 2.32 2.66 3 3 C0.03 5.475 0.03 5.475 -3 8 C-3.66 7.67 -4.32 7.34 -5 7 C-3.70700306 4.11562221 -2.34058637 2.12780579 0 0 Z " fill="#1A0439" transform="translate(134,106)"/>
<path d="M0 0 C1.33277294 2.66554587 0.71619757 3.64383594 -0.1875 6.4375 C-1.44312783 10.05324311 -2.46832393 12.173271 -6 14 C-4.45941767 8.98491285 -2.97068161 4.3852919 0 0 Z " fill="#8440DA" transform="translate(19,94)"/>
<path d="M0 0 C0.33 1.32 0.66 2.64 1 4 C-1.4375 6.75 -1.4375 6.75 -4 9 C-4.99 8.67 -5.98 8.34 -7 8 C-4.69 5.36 -2.38 2.72 0 0 Z " fill="#843ADD" transform="translate(45,58)"/>
<path d="M0 0 C-0.33 1.32 -0.66 2.64 -1 4 C-4.63 4.66 -8.26 5.32 -12 6 C-4 0 -4 0 0 0 Z " fill="#853FDE" transform="translate(106,16)"/>
<path d="M0 0 C1.89213369 2.38573379 3.02391783 4.07175348 4 7 C4.66 7.33 5.32 7.66 6 8 C5.67 9.98 5.34 11.96 5 14 C2.81385576 11.81385576 2.31743465 10.46120051 1.375 7.5625 C1.11460938 6.78003906 0.85421875 5.99757812 0.5859375 5.19140625 C0 3 0 3 0 0 Z " fill="#853EDA" transform="translate(7,215)"/>
<path d="M0 0 C1.79378179 2.69067269 2.97313958 5.08578257 4.1875 8.0625 C4.55230469 8.94035156 4.91710937 9.81820312 5.29296875 10.72265625 C6 13 6 13 5 15 C4.34 14.34 3.68 13.68 3 13 C3 12.01 3 11.02 3 10 C2.34 10 1.68 10 1 10 C0.67 6.7 0.34 3.4 0 0 Z " fill="#7A37C9" transform="translate(124,186)"/>
<path d="M0 0 C3.13111343 3.13111343 4.5143519 4.53075407 6.25 8.25 C6.58515625 8.95640625 6.9203125 9.6628125 7.265625 10.390625 C7.62914062 11.18726563 7.62914062 11.18726563 8 12 C7.34 12 6.68 12 6 12 C6 11.34 6 10.68 6 10 C5.01 10.33 4.02 10.66 3 11 C2.01 7.37 1.02 3.74 0 0 Z " fill="#7C37CF" transform="translate(218,164)"/>
<path d="M0 0 C0.66 0.33 1.32 0.66 2 1 C-0.31 4.96 -2.62 8.92 -5 13 C-6 9 -6 9 -5 7 C-4.34 7 -3.68 7 -3 7 C-2.87625 6.21625 -2.7525 5.4325 -2.625 4.625 C-2 2 -2 2 0 0 Z " fill="#7D38D2" transform="translate(271,120)"/>
<path d="M0 0 C2.74708629 4.12062943 3.11949692 6.84276139 3.0625 11.6875 C3.05347656 12.68136719 3.04445312 13.67523438 3.03515625 14.69921875 C3.02355469 15.45847656 3.01195312 16.21773437 3 17 C2.67 17 2.34 17 2 17 C2 14.36 2 11.72 2 9 C1.34 9 0.68 9 0 9 C0 6.03 0 3.06 0 0 Z " fill="#7B37D0" transform="translate(179,103)"/>
<path d="M0 0 C3.39417765 3.12621626 5.6062718 5.56541027 7 10 C5.35 9.67 3.7 9.34 2 9 C2.33 8.01 2.66 7.02 3 6 C2.34 6 1.68 6 1 6 C0.67 4.02 0.34 2.04 0 0 Z " fill="#813CDA" transform="translate(338,75)"/>
<path d="M0 0 C1.32 0.66 2.64 1.32 4 2 C1.69 4.31 -0.62 6.62 -3 9 C-3 5.30581799 -1.71820705 3.22163822 0 0 Z " fill="#7D32D9" transform="translate(318,283)"/>
<path d="M0 0 C3.13269705 3.13269705 3.05494397 5.97328423 3.0625 10.25 C3.041875 11.4875 3.02125 12.725 3 14 C2.67 14 2.34 14 2 14 C2 12.35 2 10.7 2 9 C1.34 9 0.68 9 0 9 C-1.15941038 5.52176885 -0.70820884 3.54104422 0 0 Z " fill="#7C37D2" transform="translate(59,98)"/>
<path d="M0 0 C0.66 0.33 1.32 0.66 2 1 C1.57847656 1.39832031 1.15695313 1.79664063 0.72265625 2.20703125 C0.17480469 2.73683594 -0.37304688 3.26664063 -0.9375 3.8125 C-1.75541016 4.59560547 -1.75541016 4.59560547 -2.58984375 5.39453125 C-4.23519092 7.05812198 -4.23519092 7.05812198 -5 10 C-6.65 10.33 -8.3 10.66 -10 11 C-6.79239749 7.19364503 -3.59253891 3.45436433 0 0 Z " fill="#7F3DD1" transform="translate(56,47)"/>
<path d="M0 0 C0.6875 1.625 0.6875 1.625 1 4 C-0.4375 7.25 -0.4375 7.25 -2 10 C-2.33 9.01 -2.66 8.02 -3 7 C-3.66 6.67 -4.32 6.34 -5 6 C-3.35 4.02 -1.7 2.04 0 0 Z " fill="#110024" transform="translate(249,163)"/>
<path d="M0 0 C0.33 0.66 0.66 1.32 1 2 C-2.625 7.875 -2.625 7.875 -6 9 C-5.52797514 4.75177626 -3.03344482 2.80010291 0 0 Z " fill="#813AD6" transform="translate(89,157)"/>
<path d="M0 0 C1 3 1 3 1 5 C-0.96466413 6.06775224 -2.96855359 7.06553465 -5 8 C-5.66 7.67 -6.32 7.34 -7 7 C-4.69 4.69 -2.38 2.38 0 0 Z " fill="#8338D8" transform="translate(134,111)"/>
<path d="M0 0 C1.98 0.66 3.96 1.32 6 2 C6 4.31 6 6.62 6 9 C2.91910327 6.22719294 1.31224548 3.93673644 0 0 Z " fill="#8239DD" transform="translate(26,256)"/>
<path d="M0 0 C4.95 0 9.9 0 15 0 C15 0.99 15 1.98 15 3 C7.575 2.01 7.575 2.01 0 1 C0 0.67 0 0.34 0 0 Z " fill="#260C48" transform="translate(93,153)"/>
<path d="M0 0 C0.66 0 1.32 0 2 0 C2.86646667 1.43011973 3.71781829 2.86940619 4.5625 4.3125 C5.03816406 5.11300781 5.51382813 5.91351563 6.00390625 6.73828125 C7 9 7 9 6 12 C4.99466333 10.37829621 3.99588093 8.75252763 3 7.125 C2.443125 6.22007812 1.88625 5.31515625 1.3125 4.3828125 C0 2 0 2 0 0 Z " fill="#803AD7" transform="translate(217,122)"/>
<path d="M0 0 C3.91402949 1.26941497 5.79072873 2.51167694 8 6 C5.125 5.8125 5.125 5.8125 2 5 C0.625 2.4375 0.625 2.4375 0 0 Z " fill="#833BDB" transform="translate(170,95)"/>
<path d="M0 0 C2.62187494 1.04874998 3.79371361 1.64931313 5.25 4.125 C5.4975 4.74375 5.745 5.3625 6 6 C3.03 5.505 3.03 5.505 0 5 C0 3.35 0 1.7 0 0 Z " fill="#823BE0" transform="translate(329,65)"/>
<path d="M0 0 C2.64465038 3.1254959 3.84414715 6.08788267 5 10 C2 9 2 9 0.8125 6.6875 C0 4 0 4 0 0 Z " fill="#7A33C6" transform="translate(132,206)"/>
<path d="M0 0 C3.48331435 3.01887244 4.79157144 5.56909529 6 10 C5.01 9.67 4.02 9.34 3 9 C3 8.01 3 7.02 3 6 C2.34 6 1.68 6 1 6 C0.67 4.02 0.34 2.04 0 0 Z " fill="#1B0333" transform="translate(218,126)"/>
<path d="M0 0 C0 2.62113708 -0.31292445 4.50935112 -1 7 C-2.65 7 -4.3 7 -6 7 C-4.02 4.69 -2.04 2.38 0 0 Z " fill="#8135DA" transform="translate(141,104)"/>
<path d="M0 0 C3.37503669 1.1858237 5.64722731 2.27573689 8 5 C6.02 5 4.04 5 2 5 C2 4.01 2 3.02 2 2 C1.34 2 0.68 2 0 2 C0 1.34 0 0.68 0 0 Z " fill="#0F0126" transform="translate(122,153)"/>
<path d="M0 0 C0.33 0.99 0.66 1.98 1 3 C-1.3125 6.1875 -1.3125 6.1875 -4 9 C-4.66 9 -5.32 9 -6 9 C-5.67 7.68 -5.34 6.36 -5 5 C-3.68 4.67 -2.36 4.34 -1 4 C-0.67 2.68 -0.34 1.36 0 0 Z " fill="#8D35EC" transform="translate(260,152)"/>
<path d="M0 0 C0.66 0.33 1.32 0.66 2 1 C2.33 1.99 2.66 2.98 3 4 C2.01 4.99 1.02 5.98 0 7 C-0.66 6.67 -1.32 6.34 -2 6 C-1.34 4.02 -0.68 2.04 0 0 Z " fill="#8A34EC" transform="translate(258,320)"/>
<path d="M0 0 C2.6855594 2.6855594 3.06049974 5.37621328 4 9 C3.34 9 2.68 9 2 9 C2 8.34 2 7.68 2 7 C1.34 7 0.68 7 0 7 C0 4.69 0 2.38 0 0 Z " fill="#180534" transform="translate(151,201)"/>
<path d="M0 0 C1.33332095 2.6666419 0.67102033 4.16680303 0 7 C-0.66 7 -1.32 7 -2 7 C-2 7.66 -2 8.32 -2 9 C-2.66 9 -3.32 9 -4 9 C-2.94124926 5.59687262 -1.99097846 2.98646769 0 0 Z " fill="#7834C9" transform="translate(267,136)"/>
<path d="M0 0 C1.32 0.66 2.64 1.32 4 2 C-0.75 6 -0.75 6 -3 6 C-1.125 1.125 -1.125 1.125 0 0 Z " fill="#7B33D2" transform="translate(291,305)"/>
<path d="M0 0 C1 3 1 3 -0.4375 6.1875 C-1.2109375 7.5796875 -1.2109375 7.5796875 -2 9 C-2.33 9 -2.66 9 -3 9 C-3.33 7.02 -3.66 5.04 -4 3 C-3.01 2.67 -2.02 2.34 -1 2 C-0.67 1.34 -0.34 0.68 0 0 Z " fill="#823CD7" transform="translate(356,231)"/>
<path d="M0 0 C0.66 0 1.32 0 2 0 C2.33 0.66 2.66 1.32 3 2 C3.66 2 4.32 2 5 2 C4.67 3.98 4.34 5.96 4 8 C1.84622436 5.37801226 0.59927826 3.35595828 0 0 Z " fill="#0F0021" transform="translate(135,210)"/>
</svg>
